GRF
version=1
nRows=12
nColumns=46
inDegrees=no
endheader
time	plate1_ground_force_vx	plate1_ground_force_vy	plate1_ground_force_vz	plate1_ground_force_px	plate1_ground_force_py	plate1_ground_force_pz	plate1_ground_torque_x	plate1_ground_torque_y	plate1_ground_torque_z	plate2_ground_force_vx	plate2_ground_force_vy	plate2_ground_force_vz	plate2_ground_force_px	plate2_ground_force_py	plate2_ground_force_pz	plate2_ground_torque_x	plate2_ground_torque_y	plate2_ground_torque_z	plate3_ground_force_vx	plate3_ground_force_vy	plate3_ground_force_vz	plate3_ground_force_px	plate3_ground_force_py	plate3_ground_force_pz	plate3_ground_torque_x	plate3_ground_torque_y	plate3_ground_torque_z	plate4_ground_force_vx	plate4_ground_force_vy	plate4_ground_force_vz	plate4_ground_force_px	plate4_ground_force_py	plate4_ground_force_pz	plate4_ground_torque_x	plate4_ground_torque_y	plate4_ground_torque_z	plate5_ground_force_vx	plate5_ground_force_vy	plate5_ground_force_vz	plate5_ground_force_px	plate5_ground_force_py	plate5_ground_force_pz	plate5_ground_torque_x	plate5_ground_torque_y	plate5_ground_torque_z
      2.15000000	      0.00000000	      0.00000000	      0.00000000	      0.00000000	      0.00000000	      0.00000000	      0.00000000	      0.00000000	      0.00000000	      0.00000000	      0.00000000	      0.00000000	      0.00000000	      0.00000000	      0.00000000	      0.00000000	      0.00000000	      0.00000000	      0.00000000	      0.00000000	      0.00000000	      0.00000000	      0.00000000	      0.00000000	      0.00000000	      0.00000000	      0.00000000	     67.90608867	    597.11443979	     32.72932230	      1.11131827	      0.00000000	      0.12893204	      0.00000000	     -0.59995713	      0.00000000	      0.00000000	      0.00000000	      0.00000000	      1.58178774	      0.00000000	      0.22247193	      0.00000000	      0.00000000	      0.00000000
      2.16000000	      0.00000000	      0.00000000	      0.00000000	      0.00000000	      0.00000000	      0.00000000	      0.00000000	      0.00000000	      0.00000000	      0.00000000	      0.00000000	      0.00000000	      0.00000000	      0.00000000	      0.00000000	      0.00000000	      0.00000000	      0.00000000	      0.00000000	      0.00000000	      0.00000000	      0.00000000	      0.00000000	      0.00000000	      0.00000000	      0.00000000	      0.00000000	     76.02502821	    598.32895064	     32.97084008	      1.11240113	      0.00000000	      0.12927617	      0.00000000	     -0.47074239	      0.00000000	    -10.76128147	     52.53223556	      2.84846285	      1.58183075	      0.00000000	      0.22247004	      0.00000000	     -0.00513083	      0.00000000
      2.17000000	      0.00000000	      0.00000000	      0.00000000	      0.00000000	      0.00000000	      0.00000000	      0.00000000	      0.00000000	      0.00000000	      0.00000000	      0.00000000	      0.00000000	      0.00000000	      0.00000000	      0.00000000	      0.00000000	      0.00000000	      0.00000000	      0.00000000	      0.00000000	      0.00000000	      0.00000000	      0.00000000	      0.00000000	      0.00000000	      0.00000000	      0.00000000	     83.64543823	    593.13971823	     32.70766561	      1.11347219	      0.00000000	      0.12966135	      0.00000000	     -0.33017494	      0.00000000	    -15.38274987	     75.60231010	      4.08918662	      1.58251283	      0.00000000	      0.22246768	      0.00000000	     -0.00775785	      0.00000000
      2.18000000	      0.00000000	      0.00000000	      0.00000000	      0.00000000	      0.00000000	      0.00000000	      0.00000000	      0.00000000	      0.00000000	      0.00000000	      0.00000000	      0.00000000	      0.00000000	      0.00000000	      0.00000000	      0.00000000	      0.00000000	      0.00000000	      0.00000000	      0.00000000	      0.00000000	      0.00000000	      0.00000000	      0.00000000	      0.00000000	      0.00000000	      0.00000000	     90.43146814	    580.97481119	     31.83049742	      1.11456633	      0.00000000	      0.13009413	      0.00000000	     -0.18635664	     -0.00000000	    -20.67794199	    101.61640134	      5.33702442	      1.58370393	      0.00000000	      0.22253365	      0.00000000	     -0.00837148	      0.00000000
      2.19000000	      0.00000000	      0.00000000	      0.00000000	      0.00000000	      0.00000000	      0.00000000	      0.00000000	      0.00000000	      0.00000000	      0.00000000	      0.00000000	      0.00000000	      0.00000000	      0.00000000	      0.00000000	      0.00000000	      0.00000000	      0.00000000	      0.00000000	      0.00000000	      0.00000000	      0.00000000	      0.00000000	      0.00000000	      0.00000000	      0.00000000	      0.00000000	     96.01311328	    561.39923988	     30.24605050	      1.11571613	      0.00000000	      0.13057201	      0.00000000	     -0.04876151	     -0.00000000	    -26.39784661	    128.77146426	      6.30182414	      1.58544682	      0.00000000	      0.22273320	      0.00000000	     -0.00270680	      0.00000000
      2.20000000	      0.00000000	      0.00000000	      0.00000000	      0.00000000	      0.00000000	      0.00000000	      0.00000000	      0.00000000	      0.00000000	      0.00000000	      0.00000000	      0.00000000	      0.00000000	      0.00000000	      0.00000000	      0.00000000	      0.00000000	      0.00000000	      0.00000000	      0.00000000	      0.00000000	      0.00000000	      0.00000000	      0.00000000	      0.00000000	      0.00000000	      0.00000000	     99.98297652	    534.16555659	     27.90753849	      1.11695454	      0.00000000	      0.13108037	      0.00000000	      0.07269303	     -0.00000000	    -32.35070999	    155.68537306	      6.65508453	      1.58776696	      0.00000000	      0.22313077	      0.00000000	      0.01534394	      0.00000000
      2.21000000	      0.00000000	      0.00000000	      0.00000000	      0.00000000	      0.00000000	      0.00000000	      0.00000000	      0.00000000	      0.00000000	      0.00000000	      0.00000000	      0.00000000	      0.00000000	      0.00000000	      0.00000000	      0.00000000	      0.00000000	      0.00000000	      0.00000000	      0.00000000	      0.00000000	      0.00000000	      0.00000000	      0.00000000	      0.00000000	      0.00000000	      0.00000000	    101.90490562	    499.28146412	     24.84349649	      1.11831890	      0.00000000	      0.13159193	      0.00000000	      0.16888452	     -0.00000000	    -38.45544936	    182.05911470	      6.11912731	      1.59068443	      0.00000000	      0.22377075	      0.00000000	      0.05242038	      0.00000000
      2.22000000	      0.00000000	      0.00000000	      0.00000000	      0.00000000	      0.00000000	      0.00000000	      0.00000000	      0.00000000	      0.00000000	      0.00000000	      0.00000000	      0.00000000	      0.00000000	      0.00000000	      0.00000000	      0.00000000	      0.00000000	      0.00000000	      0.00000000	      0.00000000	      0.00000000	      0.00000000	      0.00000000	      0.00000000	      0.00000000	      0.00000000	      0.00000000	    101.34879636	    457.10186344	     21.17697840	      1.11985374	      0.00000000	      0.13207021	      0.00000000	      0.23298430	     -0.00000000	    -44.70825244	    208.81016040	      4.55308264	      1.59420299	      0.00000000	      0.22466151	      0.00000000	      0.11346955	      0.00000000
      2.23000000	      0.00000000	      0.00000000	      0.00000000	      0.00000000	      0.00000000	      0.00000000	      0.00000000	      0.00000000	      0.00000000	      0.00000000	      0.00000000	      0.00000000	      0.00000000	      0.00000000	      0.00000000	      0.00000000	      0.00000000	      0.00000000	      0.00000000	      0.00000000	      0.00000000	      0.00000000	      0.00000000	      0.00000000	      0.00000000	      0.00000000	      0.00000000	     97.96397544	    408.44644779	     17.12765023	      1.12160760	      0.00000000	      0.13247758	      0.00000000	      0.26196705	     -0.00000000	    -51.07864119	    237.55727314	      2.00080583	      1.59828616	      0.00000000	      0.22576867	      0.00000000	      0.19948229	      0.00000000
      2.24000000	      0.00000000	      0.00000000	      0.00000000	      0.00000000	      0.00000000	      0.00000000	      0.00000000	      0.00000000	      0.00000000	      0.00000000	      0.00000000	      0.00000000	      0.00000000	      0.00000000	      0.00000000	      0.00000000	      0.00000000	      0.00000000	      0.00000000	      0.00000000	      0.00000000	      0.00000000	      0.00000000	      0.00000000	      0.00000000	      0.00000000	      0.00000000	     91.58981590	    354.72014766	     12.99081549	      1.12362018	      0.00000000	      0.13278648	     -0.00000000	      0.25762346	     -0.00000000	    -57.40125773	    269.71716035	     -1.31971355	      1.60283958	      0.00000000	      0.22702137	      0.00000000	      0.30637549	      0.00000000
      2.25000000	      0.00000000	      0.00000000	      0.00000000	      0.00000000	      0.00000000	      0.00000000	      0.00000000	      0.00000000	      0.00000000	      0.00000000	      0.00000000	      0.00000000	      0.00000000	      0.00000000	      0.00000000	      0.00000000	      0.00000000	      0.00000000	      0.00000000	      0.00000000	      0.00000000	      0.00000000	      0.00000000	      0.00000000	      0.00000000	      0.00000000	      0.00000000	     82.37690523	    297.97826574	      9.09209663	      1.12590303	      0.00000000	      0.13299091	     -0.00000000	      0.22652847	     -0.00000000	    -63.33559551	    305.68682055	     -5.08183400	      1.60771441	      0.00000000	      0.22833108	      0.00000000	      0.42576440	      0.00000000
      2.26000000	      0.00000000	      0.00000000	      0.00000000	      0.00000000	      0.00000000	      0.00000000	      0.00000000	      0.00000000	      0.00000000	      0.00000000	      0.00000000	      0.00000000	      0.00000000	      0.00000000	      0.00000000	      0.00000000	      0.00000000	      0.00000000	      0.00000000	      0.00000000	      0.00000000	      0.00000000	      0.00000000	      0.00000000	      0.00000000	      0.00000000	      0.00000000	     70.86706612	    240.85577911	      5.72534537	      1.12842732	      0.00000000	      0.13311481	     -0.00000000	      0.17872433	     -0.00000000	    -68.42354681	    344.49902702	     -8.94424731	      1.61273382	      0.00000000	      0.22961684	      0.00000000	      0.54733590	      0.00000000
